<?xml version="1.0" encoding="UTF-8"?>
<svg width="36px" height="36px" viewBox="0 0 36 36" version="1.1" xmlns="http://www.w3.org/2000/svg" xmlns:xlink="http://www.w3.org/1999/xlink">
    <!-- Generator: Sketch 53.1 (72631) - https://sketchapp.com -->
    <title>icon-search-google</title>
    <desc>Created with Sketch.</desc>
    <g id="icon-search-google" stroke="none" stroke-width="1" fill="none" fill-rule="evenodd">
        <g id="google-g" transform="translate(2.000000, 2.000000)">
            <path d="M31.36,16.3636364 C31.36,15.2290909 31.2581818,14.1381818 31.0690909,13.0909091 L16,13.0909091 L16,19.28 L24.6109091,19.28 C24.24,21.28 23.1127273,22.9745455 21.4181818,24.1090909 L21.4181818,28.1236364 L26.5890909,28.1236364 C29.6145455,25.3381818 31.36,21.2363636 31.36,16.3636364 L31.36,16.3636364 Z" id="Path" fill="#4285F4" fill-rule="nonzero"></path>
            <path d="M16,32 C20.32,32 23.9418182,30.5672727 26.5890909,28.1236364 L21.4181818,24.1090909 C19.9854545,25.0690909 18.1527273,25.6363636 16,25.6363636 C11.8327273,25.6363636 8.30545455,22.8218182 7.04727273,19.04 L1.70181818,19.04 L1.70181818,23.1854545 C4.33454545,28.4145455 9.74545455,32 16,32 Z" id="Path" fill="#34A853" fill-rule="nonzero"></path>
            <path d="M7.04727273,19.04 C6.72727273,18.08 6.54545455,17.0545455 6.54545455,16 C6.54545455,14.9454545 6.72727273,13.92 7.04727273,12.96 L7.04727273,8.81454545 L1.70181818,8.81454545 C0.581816803,11.0441575 -0.00098834702,13.5048904 -6.45947961e-16,16 C-6.45947961e-16,18.5818182 0.618181818,21.0254545 1.70181818,23.1854545 L7.04727273,19.04 L7.04727273,19.04 Z" id="Path" fill="#FBBC05" fill-rule="nonzero"></path>
            <path d="M16,6.36363636 C18.3490909,6.36363636 20.4581818,7.17090909 22.1163636,8.75636364 L26.7054545,4.16727273 C23.9345455,1.58545455 20.3127273,0 16,0 C9.74545455,0 4.33454545,3.58545455 1.70181818,8.81454545 L7.04727273,12.96 C8.30545455,9.17818182 11.8327273,6.36363636 16,6.36363636 Z" id="Path" fill="#EA4335" fill-rule="nonzero"></path>
            <polygon id="Path" points="0 0 32 0 32 32 0 32"></polygon>
        </g>
    </g>
</svg>